<?xml version="1.0" encoding="UTF-8" standalone="no"?>
<!DOCTYPE svg PUBLIC "-//W3C//DTD SVG 1.1//EN" "http://www.w3.org/Graphics/SVG/1.1/DTD/svg11.dtd">
<svg width="100%" height="100%" viewBox="0 0 1000 1000" version="1.1" xmlns="http://www.w3.org/2000/svg" xmlns:xlink="http://www.w3.org/1999/xlink" xml:space="preserve" xmlns:serif="http://www.serif.com/" style="fill-rule:evenodd;clip-rule:evenodd;stroke-linejoin:round;stroke-miterlimit:2;">
    <rect x="0" y="0" width="1000" height="1000" style="fill:rgb(31,221,171);"/>
    <rect id="logo" x="0" y="0" width="1000" height="1000" style="fill:none;"/>
    <g id="logo1" serif:id="logo">
        <g transform="matrix(0.927426,0,0,0.927426,59.1236,79.9412)">
            <g transform="matrix(1.36857,0,0,1.43478,-142.219,-223.309)">
                <path d="M445.586,408.821C429.711,381.86 422.98,367.61 388.425,364.475C302.841,356.711 237.52,330.239 149.608,297.261C180.503,431.166 228.272,478.717 340.356,523.562C370.59,479.084 409.838,429.851 445.586,408.821Z" style="fill:white;"/>
            </g>
            <g transform="matrix(1.10152,0,0,1.15481,-118.528,-150.555)">
                <path d="M279.233,820.362C275.274,776.387 393.637,475.572 525.513,429.884C527.517,429.19 529.193,428.605 530.588,427.424C531.984,426.243 533.01,424.481 533.883,422.799C541.189,408.721 546.187,405.182 563.033,398.496C601.074,383.398 671.668,396.197 714.409,441.693C714.719,442.024 714.967,442.312 715.356,442.475C715.744,442.639 716.741,442.674 716.741,442.674L958.671,439.797L719.43,487.844C719.43,487.844 717.061,488.917 716.284,489.627C715.328,490.502 714.577,491.558 713.691,493.096C644.93,612.491 551.508,695.885 403.931,700.221C402.082,700.275 400.15,700.266 398.733,700.619C397.586,700.904 396.399,701.671 395.427,702.338C347.664,735.081 310.819,775.801 279.233,820.362Z" style="fill:white;"/>
            </g>
        </g>
    </g>
</svg>
